<svg width="50" height="50" viewBox="0 0 50 50" fill="none" xmlns="http://www.w3.org/2000/svg">
<rect width="50" height="50" fill="white"/>
<path d="M17 19H33M31 19V30.8C31 31.9201 31.0002 32.4802 30.7822 32.908C30.5905 33.2844 30.2841 33.5902 29.9078 33.782C29.48 34 28.9203 34 27.8002 34H22.2002C21.0801 34 20.5196 34 20.0918 33.782C19.7155 33.5902 19.4097 33.2844 19.218 32.908C19 32.4802 19 31.9201 19 30.8V19H31ZM29 19H21C21 18.0681 21 17.6022 21.1522 17.2346C21.3552 16.7446 21.7443 16.3552 22.2344 16.1522C22.6019 16 23.0681 16 24 16H26C26.9319 16 27.3978 16 27.7654 16.1522C28.2554 16.3552 28.6447 16.7446 28.8477 17.2346C28.9999 17.6022 29 18.0681 29 19Z" stroke="black" stroke-width="2" stroke-linecap="round" stroke-linejoin="round"/>
</svg>
