<svg width="50" height="50" viewBox="0 0 50 50" fill="none" xmlns="http://www.w3.org/2000/svg">
<rect width="50" height="50" fill="white"/>
<path d="M17 32.9999H16C16 33.2651 16.1054 33.5194 16.2929 33.707C16.4804 33.8945 16.7348 33.9999 17 33.9999L17 32.9999ZM17 28.9999L16.2929 28.2928C16.1054 28.4803 16 28.7347 16 28.9999H17ZM27.8686 18.1312L27.1615 17.4241L27.1615 17.4241L27.8686 18.1312ZM30.1313 18.1312L29.4242 18.8383L29.4242 18.8383L30.1313 18.1312ZM31.8686 19.8685L32.5757 19.1614L32.5757 19.1614L31.8686 19.8685ZM31.8686 22.1312L31.1615 21.4241L31.1615 21.4241L31.8686 22.1312ZM21 32.9998L21 33.9998C21.2652 33.9998 21.5196 33.8945 21.7071 33.707L21 32.9998ZM32.5369 20.6909L33.4879 20.3819L33.4879 20.3819L32.5369 20.6909ZM32.5369 21.3088L31.5858 20.9998L31.5858 20.9998L32.5369 21.3088ZM28.691 17.463L28.382 16.5119L28.382 16.5119L28.691 17.463ZM29.3091 17.463L29.6181 16.5119L29.6181 16.5119L29.3091 17.463ZM25.7071 20.2928C25.3166 19.9022 24.6834 19.9022 24.2929 20.2928C23.9024 20.6833 23.9024 21.3165 24.2929 21.707L25.7071 20.2928ZM28.2929 25.707C28.6834 26.0975 29.3166 26.0975 29.7071 25.707C30.0976 25.3165 30.0976 24.6833 29.7071 24.2928L28.2929 25.707ZM18 32.9999V28.9999H16V32.9999H18ZM17.7071 29.707L28.5757 18.8383L27.1615 17.4241L16.2929 28.2928L17.7071 29.707ZM29.4242 18.8383L31.1615 20.5756L32.5757 19.1614L30.8385 17.4241L29.4242 18.8383ZM31.1615 21.4241L20.2929 32.2927L21.7071 33.707L32.5757 22.8383L31.1615 21.4241ZM21 31.9998L17 31.9999L17 33.9999L21 33.9998L21 31.9998ZM31.1615 20.5756C31.3712 20.7853 31.4854 20.9006 31.5611 20.9897C31.6292 21.07 31.6058 21.0613 31.5858 20.9999L33.4879 20.3819C33.3938 20.0921 33.2342 19.8702 33.0858 19.6954C32.9449 19.5295 32.7621 19.3477 32.5757 19.1614L31.1615 20.5756ZM32.5757 22.8383C32.7621 22.652 32.9449 22.4702 33.0858 22.3043C33.2342 22.1295 33.3938 21.9076 33.4879 21.6178L31.5858 20.9998C31.6058 20.9384 31.6292 20.9297 31.5611 21.01C31.4854 21.0992 31.3712 21.2144 31.1615 21.4241L32.5757 22.8383ZM31.5858 20.9999L31.5858 20.9998L33.4879 21.6178C33.6184 21.2162 33.6184 20.7835 33.4879 20.3819L31.5858 20.9999ZM28.5757 18.8383C28.7854 18.6287 28.9007 18.5145 28.9899 18.4388C29.0701 18.3707 29.0614 18.3941 29 18.4141L28.382 16.5119C28.0923 16.6061 27.8704 16.7656 27.6955 16.9141C27.5296 17.0549 27.3479 17.2378 27.1615 17.4241L28.5757 18.8383ZM30.8385 17.4241C30.6522 17.2378 30.4704 17.055 30.3046 16.9141C30.1298 16.7657 29.9079 16.6061 29.6181 16.5119L29.0001 18.4141C28.9386 18.3941 28.9299 18.3706 29.0101 18.4387C29.0993 18.5144 29.2145 18.6286 29.4242 18.8383L30.8385 17.4241ZM29 18.4141H29.0001L29.6181 16.5119C29.2164 16.3814 28.7837 16.3814 28.382 16.5119L29 18.4141ZM24.2929 21.707L28.2929 25.707L29.7071 24.2928L25.7071 20.2928L24.2929 21.707Z" fill="black"/>
</svg>
