<svg width="50" height="50" viewBox="0 0 50 50" fill="none" xmlns="http://www.w3.org/2000/svg">
<path d="M20.834 45.8333V41.6667H47.9173V45.8333H20.834ZM22.9173 39.5833C22.9173 36.7708 23.8027 34.3146 25.5736 32.2146C27.3444 30.1146 29.584 28.8208 32.2923 28.3333V27.0312C32.2923 26.441 32.4923 25.9465 32.8923 25.5479C33.2923 25.1493 33.7868 24.9493 34.3756 24.9479C34.9645 24.9465 35.4597 25.1465 35.8611 25.5479C36.2625 25.9493 36.4618 26.4437 36.459 27.0312V28.3333C39.1326 28.8194 41.3638 30.1132 43.1527 32.2146C44.9416 34.316 45.8354 36.7722 45.834 39.5833H22.9173ZM28.3861 35.3646H40.2611C39.6013 34.4271 38.759 33.6715 37.734 33.0979C36.709 32.5243 35.5895 32.2382 34.3756 32.2396C33.1256 32.2396 31.9798 32.5264 30.9382 33.1C29.8965 33.6736 29.0458 34.4285 28.3861 35.3646ZM2.08398 27.0833V4.16667H14.584V7.1875L29.1673 3.125L45.834 8.33333V10.4167C45.834 12.1528 45.2263 13.6285 44.0111 14.8437C42.7958 16.059 41.3201 16.6667 39.584 16.6667H35.4173V17.9167C35.4173 18.7847 35.1652 19.575 34.6611 20.2875C34.1569 21 33.5062 21.5118 32.709 21.8229L18.6465 27.0833H2.08398ZM6.25065 22.9167H10.4173V8.33333H6.25065V22.9167ZM14.584 22.9167H17.9173L30.0006 18.4896C30.3826 18.3507 30.6868 18.1167 30.9132 17.7875C31.1395 17.4583 31.252 17.0847 31.2506 16.6667H27.5527L21.459 18.6458L20.209 14.6875L26.7194 12.5H39.584C39.8965 12.5 40.2875 12.3868 40.7569 12.1604C41.2263 11.934 41.4604 11.6653 41.459 11.3542L29.0631 7.5L14.584 11.4583V22.9167Z" fill="white"/>
</svg>
