<svg width="50" height="50" viewBox="0 0 50 50" fill="none" xmlns="http://www.w3.org/2000/svg">
<path d="M15.625 4.1665C16.7301 4.1665 17.7899 4.60549 18.5713 5.38689C19.3527 6.16829 19.7917 7.2281 19.7917 8.33317C19.7917 9.43824 19.3527 10.498 18.5713 11.2794C17.7899 12.0609 16.7301 12.4998 15.625 12.4998C14.5199 12.4998 13.4601 12.0609 12.6787 11.2794C11.8973 10.498 11.4583 9.43824 11.4583 8.33317C11.4583 7.2281 11.8973 6.16829 12.6787 5.38689C13.4601 4.60549 14.5199 4.1665 15.625 4.1665ZM12.5 45.8332V33.3332H6.25L11.6667 17.4998C12.2917 15.8332 13.75 14.5832 15.625 14.5832C17.5 14.5832 19.1667 15.8332 19.5833 17.4998L25 33.3332H18.75V45.8332H12.5ZM30.2083 24.9998C30.2083 23.8948 30.6473 22.835 31.4287 22.0536C32.2101 21.2722 33.2699 20.8332 34.375 20.8332C35.4801 20.8332 36.5399 21.2722 37.3213 22.0536C38.1027 22.835 38.5417 23.8948 38.5417 24.9998C38.5417 26.1049 38.1027 27.1647 37.3213 27.9461C36.5399 28.7275 35.4801 29.1665 34.375 29.1665C33.2699 29.1665 32.2101 28.7275 31.4287 27.9461C30.6473 27.1647 30.2083 26.1049 30.2083 24.9998ZM28.125 31.2498H40.625V39.5832H37.5V45.8332H31.25V39.5832H28.125V31.2498Z" fill="white"/>
</svg>
