<svg width="50" height="50" viewBox="0 0 50 50" fill="none" xmlns="http://www.w3.org/2000/svg">
<path d="M32.3189 22.1947H33.646C34.5842 22.1973 35.5135 22.0173 36.3803 21.6652C37.247 21.3132 38.0339 20.796 38.6954 20.1437L46 12.925L44.017 10.965L36.558 18.2782L35.0079 16.7584L42.4668 9.44425L40.4142 7.49212L32.9829 14.7774L31.4372 13.2575L38.8962 5.94337L36.8971 4L29.5345 11.1619C28.8692 11.8106 28.3418 12.5823 27.9827 13.4322C27.6236 14.2822 27.4401 15.1935 27.4427 16.1135V17.4138L23.5936 21.1876L6.01882 4C2.06711 8.80112 4.40083 17.6246 8.84963 21.9874L16.48 29.4686C18.8494 31.7918 19.3197 31.9991 22.0077 30.9386C22.5869 30.7102 22.7975 30.7356 23.3375 31.2641L24.4976 32.3255C24.7591 32.588 24.7654 32.665 24.7654 33.1672V33.652C24.7654 35.4965 25.9684 36.557 26.7608 37.348L36.0047 46L42.4303 39.7L28.4699 25.9686L32.3189 22.1947Z" fill="white"/>
<path d="M21.9287 33.8226C19.3993 34.3488 17.8479 34.8336 14.8817 31.8222C14.8342 31.7739 14.785 31.7274 14.7375 31.6792L13.0835 30L4 39.1109L10.7857 46L23 33.5996L21.9287 33.8226Z" fill="white"/>
</svg>
