<svg width="50" height="50" viewBox="0 0 50 50" fill="none" xmlns="http://www.w3.org/2000/svg">
<path d="M8.33268 45.8332C7.18685 45.8332 6.20629 45.4255 5.39102 44.6103C4.57574 43.795 4.1674 42.8137 4.16602 41.6665V8.33317C4.16602 7.18734 4.57435 6.20678 5.39102 5.3915C6.20768 4.57623 7.18824 4.16789 8.33268 4.1665H41.666C42.8119 4.1665 43.7931 4.57484 44.6098 5.3915C45.4264 6.20817 45.8341 7.18873 45.8327 8.33317V41.6665C45.8327 42.8123 45.425 43.7936 44.6098 44.6103C43.7945 45.4269 42.8132 45.8346 41.666 45.8332H8.33268ZM8.33268 33.3332V41.6665H12.4993V37.4998H10.416V33.3332H8.33268ZM8.33268 29.1665H10.416C10.416 28.5762 10.616 28.0818 11.016 27.6832C11.416 27.2846 11.9105 27.0846 12.4993 27.0832V21.8748C12.4993 21.0068 12.8035 20.2693 13.4119 19.6623C14.0202 19.0554 14.7577 18.7512 15.6243 18.7498H19.791C20.6591 18.7498 21.3973 19.054 22.0056 19.6623C22.6139 20.2707 22.9174 21.0082 22.916 21.8748V27.0832C23.5063 27.0832 24.0014 27.2832 24.4014 27.6832C24.8014 28.0832 25.0007 28.5776 24.9994 29.1665H41.666V8.33317H8.33268V29.1665ZM17.7077 16.6665C16.8396 16.6665 16.1021 16.363 15.4952 15.7561C14.8882 15.1491 14.5841 14.4109 14.5827 13.5415C14.5813 12.6721 14.8855 11.9346 15.4952 11.329C16.1049 10.7234 16.8424 10.4193 17.7077 10.4165C18.573 10.4137 19.3112 10.7179 19.9223 11.329C20.5334 11.9401 20.8369 12.6776 20.8327 13.5415C20.8285 14.4054 20.525 15.1436 19.9223 15.7561C19.3195 16.3686 18.5813 16.6721 17.7077 16.6665ZM16.666 41.6665H18.7494V37.4998H16.666V41.6665ZM22.916 41.6665H41.666V33.3332H24.9994V37.4998H22.916V41.6665ZM25.5202 20.8332C25.5896 20.3818 25.6334 20.0429 25.6514 19.8165C25.6695 19.5901 25.6778 19.3561 25.6764 19.1144C25.6764 18.7325 25.5987 18.3679 25.4431 18.0207C25.2875 17.6734 24.966 17.2047 24.4785 16.6144C23.9577 15.9547 23.5674 15.295 23.3077 14.6353C23.048 13.9755 22.9174 13.2984 22.916 12.604C22.916 12.3262 22.9334 12.0401 22.9681 11.7457L23.1244 10.4165H26.2494C26.1799 10.7984 26.1278 11.1547 26.0931 11.4853C26.0584 11.8158 26.041 12.1887 26.041 12.604C26.041 12.9859 26.1195 13.3596 26.2764 13.7248C26.4334 14.0901 26.7021 14.4804 27.0827 14.8957C27.7077 15.6596 28.1591 16.3804 28.4369 17.0582C28.7146 17.7359 28.8535 18.4214 28.8535 19.1144C28.8535 19.4964 28.8362 19.8089 28.8014 20.0519C28.7667 20.295 28.7146 20.5554 28.6452 20.8332H25.5202ZM30.7285 20.8332C30.798 20.3818 30.8417 20.0429 30.8598 19.8165C30.8778 19.5901 30.8862 19.3561 30.8848 19.1144C30.8848 18.7325 30.807 18.3679 30.6514 18.0207C30.4959 17.6734 30.1744 17.2047 29.6869 16.6144C29.166 15.9547 28.7757 15.295 28.516 14.6353C28.2563 13.9755 28.1257 13.2984 28.1244 12.604C28.1244 12.3262 28.1417 12.0401 28.1764 11.7457L28.3327 10.4165H31.4577C31.3882 10.7984 31.3362 11.1547 31.3014 11.4853C31.2667 11.8158 31.2494 12.1887 31.2494 12.604C31.2494 12.9859 31.3278 13.3596 31.4848 13.7248C31.6417 14.0901 31.9105 14.4804 32.291 14.8957C32.916 15.6596 33.3674 16.3804 33.6452 17.0582C33.923 17.7359 34.0619 18.4214 34.0619 19.1144C34.0619 19.4964 34.0445 19.8089 34.0098 20.0519C33.975 20.295 33.923 20.5554 33.8535 20.8332H30.7285ZM36.041 20.8332C36.1105 20.3818 36.1542 20.0429 36.1723 19.8165C36.1903 19.5901 36.1987 19.3561 36.1973 19.1144C36.1973 18.7325 36.1195 18.3679 35.9639 18.0207C35.8084 17.6734 35.4868 17.2047 34.9993 16.6144C34.4785 15.9547 34.0882 15.295 33.8285 14.6353C33.5688 13.9755 33.4382 13.2984 33.4368 12.604C33.4368 12.3262 33.4542 12.0401 33.4889 11.7457L33.6452 10.4165H36.7702C36.7007 10.7984 36.6487 11.1547 36.6139 11.4853C36.5792 11.8158 36.5618 12.1887 36.5618 12.604C36.5618 12.9859 36.6403 13.3596 36.7973 13.7248C36.9542 14.0901 37.223 14.4804 37.6035 14.8957C38.2285 15.6596 38.6799 16.3804 38.9577 17.0582C39.2355 17.7359 39.3744 18.4214 39.3744 19.1144C39.3744 19.4964 39.357 19.8089 39.3223 20.0519C39.2875 20.295 39.2355 20.5554 39.166 20.8332H36.041Z" fill="white"/>
</svg>
