<svg width="50" height="50" viewBox="0 0 50 50" fill="none" xmlns="http://www.w3.org/2000/svg">
<path d="M47.231 41H31V45H47.397C47.7584 45.0178 48.115 44.9108 48.4069 44.6968C48.6988 44.4829 48.9082 44.175 49 43.825V42.855C49 42.855 48.988 41 47.231 41ZM44.986 40.21C46.0515 40.2084 47.0727 39.7839 47.8254 39.0297C48.5781 38.2756 49.0005 37.2535 49 36.188C49 33.961 47.2 32.165 44.986 32.165C44.4588 32.1659 43.9369 32.2707 43.4501 32.4734C42.9634 32.6761 42.5214 32.9728 42.1494 33.3464C41.7773 33.72 41.4826 34.1633 41.2819 34.6508C41.0813 35.1384 40.9787 35.6608 40.98 36.188C40.98 38.407 42.775 40.21 44.986 40.21ZM36.532 40C38.638 40 40.332 38.516 40.332 36.413C40.331 34.314 38.631 33.213 36.541 33.197L31 33.899V40H36.532ZM18.523 13.933C20.982 13.933 22.971 11.933 22.971 9.466C22.971 6.999 20.982 5 18.523 5C16.066 5 14.074 6.999 14.074 9.466C14.074 11.933 16.066 13.933 18.523 13.933ZM13.981 28.389L13.941 28.331L11.925 23.637L11.922 33H17.947L19.263 31.6L15.694 30.226C14.848 29.908 14.247 29.188 13.981 28.389ZM15.258 27.968C15.453 28.406 15.814 28.761 16.268 28.924L23.145 31.473C23.3545 31.5652 23.5802 31.6151 23.809 31.6198C24.0379 31.6246 24.2654 31.5841 24.4786 31.5006C24.6917 31.4172 24.8863 31.2925 25.0511 31.1336C25.2159 30.9748 25.3478 30.7849 25.439 30.575C25.6252 30.1496 25.6354 29.6677 25.4676 29.2347C25.2997 28.8017 24.9673 28.4528 24.543 28.264L18.198 25.868L16.238 21.167L17.516 20.691L19.177 24.719L24 26.507V21.585L26.56 23.108L27.836 29.536C27.9095 29.7535 28.0253 29.9543 28.1769 30.1267C28.3284 30.2991 28.5127 30.4398 28.7189 30.5406C28.9252 30.6414 29.1493 30.7003 29.3785 30.714C29.6077 30.7276 29.8373 30.6956 30.054 30.62C30.4905 30.4647 30.8481 30.1436 31.0494 29.7263C31.2506 29.309 31.2792 28.8292 31.129 28.391L29.699 22.2C29.6053 21.8573 29.4092 21.5513 29.137 21.323C28.404 20.511 24.697 16.366 24.433 16.089C24.046 15.701 23.161 15 21.489 15H15.489C12.079 15 11.423 18.48 12.12 20.25L15.258 27.968ZM30 34H2.967C1.983 34 1 34.555 1 35.776V45H30V34Z" fill="white"/>
</svg>
