<svg width="50" height="50" viewBox="0 0 50 50" fill="none" xmlns="http://www.w3.org/2000/svg">
<path d="M30.5375 13.0424C30.5375 11.5655 29.9508 10.149 28.9065 9.10468C27.8621 8.06034 26.4457 7.47363 24.9688 7.47363C23.4918 7.47363 22.0754 8.06034 21.031 9.10468C19.9867 10.149 19.4 11.5655 19.4 13.0424C19.4 14.5193 19.9867 15.9357 21.031 16.9801C22.0754 18.0244 23.4918 18.6111 24.9688 18.6111C26.4457 18.6111 27.8621 18.0244 28.9065 16.9801C29.9508 15.9357 30.5375 14.5193 30.5375 13.0424ZM6.2875 29.9999H13.7625V22.5349L13.7825 22.0849C13.8475 21.3424 14.0775 20.6474 14.4325 20.0349H7.54L7.2475 20.0524C6.63937 20.124 6.07869 20.4164 5.67179 20.874C5.26489 21.3315 5.04008 21.9225 5.04 22.5349V28.7499C5.04 29.0814 5.1717 29.3993 5.40612 29.6338C5.64054 29.8682 5.95598 29.9999 6.2875 29.9999ZM44.9775 28.7499C44.9775 29.0814 44.8458 29.3993 44.6114 29.6338C44.377 29.8682 44.059 29.9999 43.7275 29.9999H36.1875V22.5349L36.1725 22.1624C36.1168 21.413 35.8929 20.6858 35.5175 20.0349H42.4775C43.0902 20.035 43.6815 20.2602 44.1392 20.6676C44.5968 21.075 44.8889 21.6363 44.96 22.2449L44.9775 22.5349V28.7499ZM33.67 22.2449C33.5989 21.6359 33.3064 21.0742 32.8483 20.6668C32.3901 20.2593 31.7981 20.0344 31.185 20.0349H18.765L18.4725 20.0524C17.8644 20.124 17.3037 20.4164 16.8968 20.874C16.4899 21.3315 16.2651 21.9225 16.265 22.5349V29.9999H33.6875V22.5349L33.67 22.2449ZM37.44 9.04488C38.7084 9.04488 39.9248 9.54875 40.8217 10.4456C41.7186 11.3425 42.2225 12.559 42.2225 13.8274C42.2225 15.0958 41.7186 16.3122 40.8217 17.2091C39.9248 18.106 38.7084 18.6099 37.44 18.6099C36.1713 18.6099 34.9545 18.1059 34.0574 17.2088C33.1603 16.3116 32.6562 15.0949 32.6562 13.8261C32.6562 12.5574 33.1603 11.3406 34.0574 10.4435C34.9545 9.54638 36.1713 9.04488 37.44 9.04488ZM17.3225 13.8249C17.3225 12.5565 16.8186 11.34 15.9217 10.4431C15.0248 9.54625 13.8084 9.04238 12.54 9.04238C11.2716 9.04238 10.0552 9.54625 9.15826 10.4431C8.26137 11.34 7.7575 12.5565 7.7575 13.8249C7.7575 15.0933 8.26137 16.3097 9.15826 17.2066C10.0552 18.1035 11.2716 18.6074 12.54 18.6074C13.8084 18.6074 15.0248 18.1035 15.9217 17.2066C16.8186 16.3097 17.3225 15.0933 17.3225 13.8249ZM6.25 32.4999C5.91848 32.4999 5.60054 32.6316 5.36612 32.866C5.1317 33.1004 5 33.4184 5 33.7499V36.2499C5 37.9075 5.65848 39.4972 6.83058 40.6693C8.00269 41.8414 9.5924 42.4999 11.25 42.4999H38.75C40.4076 42.4999 41.9973 41.8414 43.1694 40.6693C44.3415 39.4972 45 37.9075 45 36.2499V33.7499C45 33.4184 44.8683 33.1004 44.6339 32.866C44.3995 32.6316 44.0815 32.4999 43.75 32.4999H6.25Z" fill="white"/>
</svg>
