<svg width="1625" height="2041" viewBox="0 0 1625 2041" fill="none" xmlns="http://www.w3.org/2000/svg">
<line x1="4.37114e-08" y1="4.5" x2="1492" y2="4.50013" stroke="url(#paint0_linear_1366_666)"/>
<line x1="4.37114e-08" y1="818.5" x2="1624" y2="818.5" stroke="url(#paint1_linear_1366_666)"/>
<line x1="4.37114e-08" y1="1633.5" x2="812" y2="1633.5" stroke="url(#paint2_linear_1366_666)"/>
<line x1="401" y1="395.5" x2="1624" y2="395.5" stroke="url(#paint3_linear_1366_666)"/>
<line x1="401.5" y1="1003" x2="401.5" y2="2040" stroke="url(#paint4_linear_1366_666)"/>
<line x1="3" y1="1226.5" x2="1624" y2="1226.5" stroke="url(#paint5_linear_1366_666)"/>
<line x1="401.5" y1="396" x2="401.5" y2="818" stroke="url(#paint6_linear_1366_666)"/>
<line x1="811.5" y1="4" x2="811.5" y2="396" stroke="white"/>
<circle cx="811.5" cy="4.5" r="4.5" fill="#E9E9E9"/>
<circle cx="811.5" cy="395.5" r="4.5" fill="#E9E9E9"/>
<line x1="1223.5" y1="396" x2="1223.5" y2="818" stroke="#212121"/>
<line x1="1624.5" y1="5" x2="1624.5" y2="1218" stroke="url(#paint7_linear_1366_666)"/>
<line x1="1223.5" y1="819" x2="1223.5" y2="1226" stroke="#202020"/>
<line x1="812.5" y1="819" x2="812.5" y2="1226" stroke="url(#paint8_linear_1366_666)"/>
<line x1="812.5" y1="2040" x2="812.5" y2="1227" stroke="url(#paint9_linear_1366_666)"/>
<circle cx="812.5" cy="1226.5" r="4.5" fill="#FEFEFE"/>
<line x1="3" y1="2040.5" x2="1624" y2="2040.5" stroke="url(#paint10_linear_1366_666)"/>
<defs>
<linearGradient id="paint0_linear_1366_666" x1="-4.37114e-08" y1="5.5" x2="1492" y2="5.50013" gradientUnits="userSpaceOnUse">
<stop stop-color="white" stop-opacity="0"/>
<stop offset="0.476411" stop-color="#DCDCDC"/>
<stop offset="1" stop-color="#999999" stop-opacity="0"/>
</linearGradient>
<linearGradient id="paint1_linear_1366_666" x1="-4.37114e-08" y1="819.5" x2="1624" y2="819.5" gradientUnits="userSpaceOnUse">
<stop stop-color="#B5B5B5" stop-opacity="0"/>
<stop offset="0.476411" stop-color="#343434"/>
<stop offset="1" stop-color="#535353" stop-opacity="0"/>
</linearGradient>
<linearGradient id="paint2_linear_1366_666" x1="-4.37114e-08" y1="1634.5" x2="812" y2="1634.5" gradientUnits="userSpaceOnUse">
<stop stop-color="#B5B5B5" stop-opacity="0.09"/>
<stop offset="1" stop-color="#343434"/>
</linearGradient>
<linearGradient id="paint3_linear_1366_666" x1="401" y1="396.5" x2="1624" y2="396.5" gradientUnits="userSpaceOnUse">
<stop stop-color="#101010"/>
<stop offset="0.476411" stop-color="#DCDCDC"/>
<stop offset="1" stop-color="#3A3A3A"/>
</linearGradient>
<linearGradient id="paint4_linear_1366_666" x1="400.5" y1="1003" x2="400.5" y2="2040" gradientUnits="userSpaceOnUse">
<stop stop-color="#0B0B0B"/>
<stop offset="1" stop-color="#202020"/>
</linearGradient>
<linearGradient id="paint5_linear_1366_666" x1="3" y1="1227.5" x2="1624" y2="1227.5" gradientUnits="userSpaceOnUse">
<stop stop-color="#101010"/>
<stop offset="0.476411" stop-color="#DCDCDC"/>
<stop offset="1" stop-color="#1B1B1B"/>
</linearGradient>
<linearGradient id="paint6_linear_1366_666" x1="400.5" y1="396" x2="400.5" y2="818" gradientUnits="userSpaceOnUse">
<stop stop-color="white" stop-opacity="0"/>
<stop offset="0.476411" stop-color="#DCDCDC"/>
<stop offset="1" stop-color="#999999" stop-opacity="0"/>
</linearGradient>
<linearGradient id="paint7_linear_1366_666" x1="1626" y1="5" x2="1585.09" y2="1216.7" gradientUnits="userSpaceOnUse">
<stop/>
<stop offset="0.665" stop-color="#252525"/>
<stop offset="1"/>
</linearGradient>
<linearGradient id="paint8_linear_1366_666" x1="811.5" y1="819" x2="811.5" y2="1226" gradientUnits="userSpaceOnUse">
<stop stop-color="#333333"/>
<stop offset="1" stop-color="white"/>
</linearGradient>
<linearGradient id="paint9_linear_1366_666" x1="813.5" y1="2040" x2="813.5" y2="1227" gradientUnits="userSpaceOnUse">
<stop stop-color="#6E6E6E"/>
<stop offset="1" stop-color="white"/>
</linearGradient>
<linearGradient id="paint10_linear_1366_666" x1="3" y1="2041.5" x2="1624" y2="2041.5" gradientUnits="userSpaceOnUse">
<stop stop-color="#101010"/>
<stop offset="0.476411" stop-color="#DCDCDC"/>
<stop offset="1" stop-color="#1B1B1B"/>
</linearGradient>
</defs>
</svg>
